<svg xmlns="http://www.w3.org/2000/svg" version="1.1" xmlns:xlink="http://www.w3.org/1999/xlink" xmlns:svgjs="http://svgjs.com/svgjs" width="4000" height="2000" preserveAspectRatio="none" viewBox="0 0 4000 2000"><g mask="url(&quot;#SvgjsMask1523&quot;)" fill="none"><rect width="4000" height="2000" x="0" y="0" fill="url(#SvgjsLinearGradient1524)"></rect><path d="M4066.666666666668 2000L0 2000 L0 1194.19Q88.7 949.56, 333.33333333333337 1038.26Q479.19 984.12, 533.3333333333334 1129.98Q705.4 968.72, 866.6666666666667 1140.79Q975.26 916.05, 1200 1024.65Q1357.73 849.04, 1533.3333333333335 1006.77Q1845.66 985.76, 1866.666666666667 1298.09Q1924.62 1022.71, 2200.0000000000005 1080.66Q2410.6 957.92, 2533.333333333334 1168.52Q2743.68 1045.53, 2866.6666666666674 1255.87Q3057.93 1113.8, 3200.000000000001 1305.06Q3216.6 1121.65, 3400.000000000001 1138.25Q3510.22 915.14, 3733.3333333333344 1025.36Q3931.41 890.1, 4066.666666666668 1088.17z" fill="rgba(172, 246, 236, 1)"></path><path d="M4066.6666666666674 2000L0 2000 L0 1339.95Q179.91 1186.52, 333.33333333333337 1366.43Q451.89 1151.65, 666.6666666666667 1270.21Q775.32 1178.87, 866.6666666666667 1287.52Q977.02 1197.88, 1066.6666666666667 1308.23Q1200.26 1241.83, 1266.6666666666667 1375.42Q1490.09 1265.51, 1600 1488.93Q1605.96 1294.89, 1800 1300.86Q1881.11 1181.96, 2000 1263.07Q2126.4 1189.47, 2200 1315.88Q2407.15 1189.7, 2533.3333333333335 1396.85Q2718.64 1248.82, 2866.666666666667 1434.12Q2988.27 1222.39, 3200.0000000000005 1343.99Q3448.44 1259.09, 3533.333333333334 1507.53Q3650.96 1291.82, 3866.6666666666674 1409.45Q3940.91 1283.69, 4066.6666666666674 1357.93z" fill="rgba(21, 232, 203, 1)"></path><path d="M4000.000000000001 2000L0 2000 L0 1532.27Q140.83 1473.1, 200 1613.92Q364.18 1578.11, 400 1742.29Q531.01 1673.3, 600 1804.3Q637.66 1508.63, 933.3333333333334 1546.29Q1112.55 1392.17, 1266.6666666666667 1571.39Q1488.63 1593.36, 1466.6666666666667 1815.32Q1465.08 1613.74, 1666.6666666666667 1612.15Q1777.27 1389.42, 2000 1500.03Q2174.29 1340.98, 2333.3333333333335 1515.27Q2567.84 1416.44, 2666.666666666667 1650.95Q2930.13 1581.08, 3000.0000000000005 1844.55Q3063.63 1574.84, 3333.333333333334 1638.47Q3477.6 1449.4, 3666.6666666666674 1593.67Q3865.36 1459.03, 4000.000000000001 1657.73z" fill="rgba(0, 191, 165, 1)"></path><path d="M4133.333333333334 2000L0 2000 L0 1997.85Q159.16 1823.68, 333.33333333333337 1982.84Q400.34 1716.51, 666.6666666666667 1783.51Q799.17 1716.01, 866.6666666666667 1848.51Q1069.82 1718.33, 1200 1921.49Q1249.09 1770.58, 1400 1819.66Q1636.03 1722.36, 1733.3333333333335 1958.39Q1871.08 1896.14, 1933.3333333333335 2033.89Q2025.63 1926.18, 2133.3333333333335 2018.48Q2175.47 1727.28, 2466.666666666667 1769.41Q2656.71 1759.45, 2666.666666666667 1949.49Q2878.57 1828.06, 3000.0000000000005 2039.96Q3093.68 1933.64, 3200.0000000000005 2027.32Q3167.54 1794.86, 3400.0000000000005 1762.39Q3630.55 1659.6, 3733.333333333334 1890.15Q3783.52 1740.34, 3933.333333333334 1790.53Q4038.34 1695.53, 4133.333333333334 1800.54z" fill="white"></path></g><defs><mask id="SvgjsMask1523"><rect width="4000" height="2000" fill="#ffffff"></rect></mask><linearGradient x1="12.5%" y1="125%" x2="87.5%" y2="-25%" gradientUnits="userSpaceOnUse" id="SvgjsLinearGradient1524"><stop stop-color="#0e2a47" offset="0"></stop><stop stop-color="rgba(54, 188, 200, 1)" offset="1"></stop></linearGradient></defs></svg>